<svg xmlns="http://www.w3.org/2000/svg" viewBox="0 0 32 32" width="32" height="32">
  <defs>
    <linearGradient id="g" x1="0" y1="0" x2="1" y2="1">
      <stop offset="0%" stop-color="#2563EB"/>
      <stop offset="100%" stop-color="#4F46E5"/>
    </linearGradient>
  </defs>
  <rect width="32" height="32" rx="6" fill="url(#g)"/>
  <path d="M7 19.5c0-1 .5-1.5 1-2l2-3c.5-.8 1.2-1.5 2.5-1.5h9c1.3 0 2 .7 2.5 1.5l2 3c.5.5 1 1 1 2v3a1 1 0 01-1 1h-1a1 1 0 01-1-1v-1H10v1a1 1 0 01-1 1H8a1 1 0 01-1-1v-3z" fill="white" opacity="0.95"/>
  <circle cx="11" cy="20" r="1.5" fill="#2563EB"/>
  <circle cx="21" cy="20" r="1.5" fill="#2563EB"/>
  <path d="M12 15h8l-1.5-2.5a.8.8 0 00-.7-.5h-3.6a.8.8 0 00-.7.5L12 15z" fill="#2563EB" opacity="0.3"/>
</svg>
