<svg xmlns="http://www.w3.org/2000/svg" width="200" height="200" viewBox="0 0 200 200">
  <defs><style>rect{fill:currentColor;opacity:0.08}</style></defs>
  <rect x="20" y="0" width="8" height="200" rx="2" transform="rotate(45 100 100)"/>
  <rect x="50" y="0" width="8" height="200" rx="2" transform="rotate(45 100 100)"/>
  <rect x="80" y="0" width="8" height="200" rx="2" transform="rotate(45 100 100)"/>
  <rect x="110" y="0" width="8" height="200" rx="2" transform="rotate(45 100 100)"/>
  <rect x="140" y="0" width="8" height="200" rx="2" transform="rotate(45 100 100)"/>
  <rect x="170" y="0" width="8" height="200" rx="2" transform="rotate(45 100 100)"/>
  <rect x="20" y="0" width="8" height="200" rx="2" transform="rotate(-45 100 100)"/>
  <rect x="50" y="0" width="8" height="200" rx="2" transform="rotate(-45 100 100)"/>
  <rect x="80" y="0" width="8" height="200" rx="2" transform="rotate(-45 100 100)"/>
  <rect x="110" y="0" width="8" height="200" rx="2" transform="rotate(-45 100 100)"/>
  <rect x="140" y="0" width="8" height="200" rx="2" transform="rotate(-45 100 100)"/>
  <rect x="170" y="0" width="8" height="200" rx="2" transform="rotate(-45 100 100)"/>
</svg>
