<svg width="76" height="80" viewBox="0 0 76 80" fill="none" xmlns="http://www.w3.org/2000/svg">
<path d="M62.7212 26.3872H55.3814C54.6444 26.3872 54.0469 26.9727 54.0469 27.6948V78.6922C54.0469 79.4144 54.6444 79.9998 55.3814 79.9998H62.7212C63.4582 79.9998 64.0557 79.4144 64.0557 78.6922V27.6948C64.0557 26.9727 63.4582 26.3872 62.7212 26.3872Z" fill="white"/>
<path d="M68.1818 26.4224H70.7875C72.1696 26.4224 73.4952 26.9806 74.4725 27.9743C75.4499 28.9681 75.9989 30.3158 75.9989 31.7211V48.2798C75.9989 49.6852 75.4499 51.0329 74.4725 52.0266C73.4952 53.0204 72.1696 53.5786 70.7875 53.5786H68.1818C67.8362 53.5786 67.5048 53.4391 67.2605 53.1906C67.0162 52.9422 66.8789 52.6053 66.8789 52.2539V27.7471C66.8789 27.3957 67.0162 27.0588 67.2605 26.8104C67.5048 26.5619 67.8362 26.4224 68.1818 26.4224V26.4224Z" fill="white"/>
<path d="M40.8302 26.4224H43.4359C44.8181 26.4224 46.1436 26.9806 47.121 27.9743C48.0983 28.9681 48.6474 30.3158 48.6474 31.7211V48.2798C48.6474 49.6852 48.0983 51.0329 47.121 52.0266C46.1436 53.0204 44.8181 53.5786 43.4359 53.5786H40.8302C40.4847 53.5786 40.1533 53.4391 39.9089 53.1906C39.6646 52.9422 39.5273 52.6053 39.5273 52.2539V27.7471C39.5273 27.3957 39.6646 27.0588 39.9089 26.8104C40.1533 26.5619 40.4847 26.4224 40.8302 26.4224V26.4224Z" fill="white"/>
<path d="M33.009 26.4224H35.8319C36.2062 26.4224 36.5652 26.5619 36.8299 26.8104C37.0946 27.0588 37.2433 27.3957 37.2433 27.7471V52.2539C37.2433 52.6053 37.0946 52.9422 36.8299 53.1906C36.5652 53.4391 36.2062 53.5786 35.8319 53.5786H33.009C31.5117 53.5786 30.0757 53.0204 29.0169 52.0266C27.9581 51.0329 27.3633 49.6852 27.3633 48.2798V31.7211C27.3633 30.3158 27.9581 28.9681 29.0169 27.9743C30.0757 26.9806 31.5117 26.4224 33.009 26.4224V26.4224Z" fill="white"/>
<path d="M14.2208 26.4224H16.8265C18.2087 26.4224 19.5343 26.9806 20.5116 27.9743C21.4889 28.9681 22.038 30.3158 22.038 31.7211V52.2539C22.038 52.6053 21.9007 52.9422 21.6564 53.1906C21.4121 53.4391 21.0807 53.5786 20.7351 53.5786H14.2208C13.8753 53.5786 13.5439 53.4391 13.2996 53.1906C13.0552 52.9422 12.918 52.6053 12.918 52.2539V27.7471C12.918 27.3957 13.0552 27.0588 13.2996 26.8104C13.5439 26.5619 13.8753 26.4224 14.2208 26.4224V26.4224Z" fill="white"/>
<path d="M8.67431 0H1.33451C0.59748 0 0 0.585444 0 1.30763V52.305C0 53.0272 0.59748 53.6126 1.33451 53.6126H8.67431C9.41134 53.6126 10.0088 53.0272 10.0088 52.305V1.30763C10.0088 0.585444 9.41134 0 8.67431 0Z" fill="white"/>
</svg>
